<svg id="visual" viewBox="0 0 900 200" width="900" height="200" xmlns="http://www.w3.org/2000/svg" xmlns:xlink="http://www.w3.org/1999/xlink" version="1.1"><path d="M0 34L150 77L300 19L450 88L600 90L750 29L900 96L900 201L750 201L600 201L450 201L300 201L150 201L0 201Z" fill="#005d9a"></path><path d="M0 40L150 71L300 109L450 42L600 70L750 73L900 73L900 201L750 201L600 201L450 201L300 201L150 201L0 201Z" fill="#0268a7"></path><path d="M0 114L150 98L300 106L450 61L600 65L750 52L900 54L900 201L750 201L600 201L450 201L300 201L150 201L0 201Z" fill="#0573b3"></path><path d="M0 114L150 116L300 111L450 63L600 70L750 97L900 76L900 201L750 201L600 201L450 201L300 201L150 201L0 201Z" fill="#077ec0"></path><path d="M0 91L150 139L300 117L450 148L600 135L750 143L900 132L900 201L750 201L600 201L450 201L300 201L150 201L0 201Z" fill="#098acd"></path><path d="M0 124L150 114L300 146L450 107L600 111L750 132L900 144L900 201L750 201L600 201L450 201L300 201L150 201L0 201Z" fill="#0b96da"></path><path d="M0 148L150 140L300 145L450 151L600 135L750 174L900 152L900 201L750 201L600 201L450 201L300 201L150 201L0 201Z" fill="#0da2e6"></path><path d="M0 183L150 154L300 174L450 141L600 152L750 170L900 178L900 201L750 201L600 201L450 201L300 201L150 201L0 201Z" fill="#0faef3"></path><path d="M0 170L150 166L300 179L450 172L600 179L750 170L900 159L900 201L750 201L600 201L450 201L300 201L150 201L0 201Z" fill="#12baff"></path></svg>